<svg xmlns="http://www.w3.org/2000/svg" xmlns:xlink="http://www.w3.org/1999/xlink" width="400" zoomAndPan="magnify" viewBox="0 0 300 149.999998" height="200" preserveAspectRatio="xMidYMid meet" version="1.0"><defs><clipPath id="f125ad422e"><path d="M 81 38 L 242.769531 38 L 242.769531 73.261719 L 81 73.261719 Z M 81 38 " clip-rule="nonzero"/></clipPath><clipPath id="319e0275a0"><path d="M 23.496094 19.847656 L 77 19.847656 L 77 70 L 23.496094 70 Z M 23.496094 19.847656 " clip-rule="nonzero"/></clipPath><clipPath id="0d2b2dc065"><path d="M 23.496094 82.769531 L 276.503906 82.769531 L 276.503906 129.859375 L 23.496094 129.859375 Z M 23.496094 82.769531 " clip-rule="nonzero"/></clipPath></defs><g clip-path="url(#f125ad422e)"><path fill="#000000" d="M 81.238281 38.777344 L 103.375 38.777344 L 103.375 42.875 L 94.65625 42.875 L 94.65625 65.972656 L 89.878906 65.972656 L 89.878906 42.875 L 81.199219 42.875 Z M 102.425781 46.28125 L 106.511719 46.28125 L 106.511719 50.089844 L 106.582031 50.089844 C 106.730469 49.546875 106.984375 49.039062 107.347656 48.53125 C 107.714844 48.023438 108.152344 47.550781 108.699219 47.152344 C 109.207031 46.71875 109.792969 46.390625 110.449219 46.136719 C 111.070312 45.882812 111.726562 45.738281 112.382812 45.738281 C 112.890625 45.738281 113.257812 45.777344 113.4375 45.777344 C 113.621094 45.8125 113.839844 45.847656 114.023438 45.847656 L 114.023438 50.019531 C 113.730469 49.945312 113.402344 49.910156 113.074219 49.875 C 112.746094 49.835938 112.453125 49.800781 112.125 49.800781 C 111.398438 49.800781 110.703125 49.945312 110.046875 50.234375 C 109.390625 50.527344 108.84375 50.960938 108.332031 51.503906 C 107.859375 52.085938 107.457031 52.773438 107.167969 53.609375 C 106.875 54.441406 106.730469 55.421875 106.730469 56.507812 L 106.730469 65.863281 L 102.351562 65.863281 Z M 134.082031 65.972656 L 129.777344 65.972656 L 129.777344 63.21875 L 129.703125 63.21875 C 129.15625 64.234375 128.355469 64.996094 127.296875 65.609375 C 126.238281 66.226562 125.144531 66.515625 124.050781 66.515625 C 121.460938 66.515625 119.566406 65.902344 118.398438 64.59375 C 117.230469 63.324219 116.648438 61.367188 116.648438 58.792969 L 116.648438 46.28125 L 121.023438 46.28125 L 121.023438 58.359375 C 121.023438 60.097656 121.351562 61.332031 122.046875 62.019531 C 122.703125 62.746094 123.652344 63.109375 124.855469 63.109375 C 125.765625 63.109375 126.53125 62.964844 127.152344 62.671875 C 127.773438 62.382812 128.28125 62.019531 128.648438 61.550781 C 129.046875 61.078125 129.304688 60.496094 129.484375 59.84375 C 129.667969 59.191406 129.742188 58.46875 129.742188 57.707031 L 129.742188 46.28125 L 134.117188 46.28125 L 134.117188 65.972656 Z M 141.519531 59.664062 C 141.667969 60.933594 142.140625 61.804688 142.980469 62.347656 C 143.816406 62.855469 144.839844 63.109375 146.007812 63.109375 C 146.40625 63.109375 146.882812 63.074219 147.390625 63 C 147.902344 62.925781 148.414062 62.820312 148.851562 62.636719 C 149.324219 62.457031 149.691406 62.203125 149.980469 61.839844 C 150.273438 61.476562 150.417969 61.042969 150.382812 60.496094 C 150.347656 59.953125 150.164062 59.480469 149.761719 59.121094 C 149.359375 58.757812 148.886719 58.503906 148.304688 58.25 C 147.71875 58.03125 147.027344 57.851562 146.261719 57.707031 C 145.496094 57.5625 144.730469 57.378906 143.925781 57.199219 C 143.125 57.015625 142.324219 56.800781 141.558594 56.546875 C 140.792969 56.292969 140.132812 55.964844 139.515625 55.492188 C 138.929688 55.058594 138.421875 54.515625 138.09375 53.824219 C 137.726562 53.136719 137.546875 52.339844 137.546875 51.324219 C 137.546875 50.234375 137.800781 49.367188 138.347656 48.640625 C 138.859375 47.914062 139.550781 47.335938 140.351562 46.898438 C 141.15625 46.464844 142.066406 46.136719 143.050781 45.957031 C 144.035156 45.777344 144.984375 45.703125 145.859375 45.703125 C 146.882812 45.703125 147.867188 45.8125 148.777344 46.03125 C 149.691406 46.246094 150.566406 46.574219 151.292969 47.082031 C 152.058594 47.550781 152.679688 48.203125 153.152344 48.964844 C 153.664062 49.726562 153.957031 50.671875 154.101562 51.757812 L 149.542969 51.757812 C 149.324219 50.707031 148.851562 50.019531 148.121094 49.65625 C 147.355469 49.292969 146.515625 49.113281 145.53125 49.113281 C 145.242188 49.113281 144.839844 49.148438 144.4375 49.183594 C 144 49.257812 143.636719 49.328125 143.234375 49.472656 C 142.871094 49.621094 142.542969 49.835938 142.285156 50.089844 C 142.03125 50.34375 141.886719 50.707031 141.886719 51.140625 C 141.886719 51.6875 142.066406 52.085938 142.433594 52.410156 C 142.796875 52.738281 143.269531 52.992188 143.890625 53.246094 C 144.472656 53.464844 145.167969 53.644531 145.933594 53.789062 C 146.699219 53.933594 147.5 54.117188 148.304688 54.296875 C 149.105469 54.476562 149.871094 54.695312 150.636719 54.949219 C 151.402344 55.203125 152.097656 55.53125 152.679688 56 C 153.261719 56.4375 153.773438 56.980469 154.140625 57.632812 C 154.503906 58.285156 154.6875 59.121094 154.6875 60.0625 C 154.6875 61.222656 154.429688 62.203125 153.882812 63.035156 C 153.335938 63.832031 152.644531 64.523438 151.804688 65.03125 C 150.964844 65.539062 149.980469 65.902344 148.960938 66.15625 C 147.902344 66.371094 146.882812 66.515625 145.859375 66.515625 C 144.621094 66.515625 143.453125 66.371094 142.394531 66.082031 C 141.339844 65.792969 140.390625 65.355469 139.625 64.8125 C 138.859375 64.234375 138.238281 63.542969 137.800781 62.671875 C 137.363281 61.839844 137.109375 60.824219 137.070312 59.628906 L 141.484375 59.628906 L 141.484375 59.664062 Z M 155.925781 46.28125 L 159.246094 46.28125 L 159.246094 40.335938 L 163.621094 40.335938 L 163.621094 46.246094 L 167.558594 46.246094 L 167.558594 49.472656 L 163.621094 49.472656 L 163.621094 59.988281 C 163.621094 60.460938 163.65625 60.824219 163.695312 61.1875 C 163.730469 61.511719 163.839844 61.804688 163.949219 62.019531 C 164.09375 62.238281 164.3125 62.417969 164.570312 62.527344 C 164.859375 62.636719 165.226562 62.710938 165.734375 62.710938 C 166.027344 62.710938 166.355469 62.710938 166.648438 62.671875 C 166.9375 62.636719 167.269531 62.601562 167.558594 62.527344 L 167.558594 65.902344 C 167.085938 65.972656 166.609375 66.007812 166.136719 66.046875 C 165.664062 66.117188 165.226562 66.117188 164.714844 66.117188 C 163.546875 66.117188 162.636719 66.007812 161.941406 65.792969 C 161.25 65.574219 160.703125 65.246094 160.300781 64.847656 C 159.902344 64.414062 159.644531 63.90625 159.5 63.289062 C 159.355469 62.671875 159.28125 61.910156 159.246094 61.113281 L 159.246094 49.511719 L 155.925781 49.511719 L 155.925781 46.210938 Z M 170.621094 46.28125 L 174.742188 46.28125 L 174.742188 48.964844 L 174.816406 48.964844 C 175.4375 47.804688 176.277344 47.007812 177.371094 46.5 C 178.464844 45.992188 179.628906 45.738281 180.945312 45.738281 C 182.511719 45.738281 183.859375 45.992188 185.027344 46.574219 C 186.195312 47.117188 187.144531 47.84375 187.910156 48.820312 C 188.675781 49.765625 189.257812 50.886719 189.621094 52.15625 C 189.988281 53.425781 190.207031 54.804688 190.207031 56.21875 C 190.207031 57.5625 190.023438 58.828125 189.695312 60.0625 C 189.332031 61.296875 188.820312 62.417969 188.128906 63.363281 C 187.433594 64.304688 186.558594 65.066406 185.464844 65.648438 C 184.371094 66.226562 183.132812 66.515625 181.671875 66.515625 C 181.054688 66.515625 180.394531 66.445312 179.777344 66.335938 C 179.15625 66.226562 178.535156 66.046875 177.953125 65.792969 C 177.371094 65.539062 176.824219 65.210938 176.347656 64.8125 C 175.835938 64.414062 175.4375 63.941406 175.109375 63.433594 L 175.035156 63.433594 L 175.035156 73.261719 L 170.660156 73.261719 L 170.660156 46.285156 Z M 185.902344 56.144531 C 185.902344 55.277344 185.792969 54.40625 185.539062 53.570312 C 185.320312 52.738281 184.953125 52.011719 184.480469 51.359375 C 184.007812 50.707031 183.421875 50.199219 182.765625 49.800781 C 182.074219 49.402344 181.273438 49.21875 180.394531 49.21875 C 178.574219 49.21875 177.1875 49.835938 176.238281 51.105469 C 175.328125 52.375 174.851562 54.078125 174.851562 56.183594 C 174.851562 57.199219 174.960938 58.105469 175.21875 58.9375 C 175.472656 59.773438 175.800781 60.496094 176.3125 61.113281 C 176.785156 61.730469 177.371094 62.203125 178.0625 62.566406 C 178.753906 62.925781 179.519531 63.109375 180.433594 63.109375 C 181.453125 63.109375 182.257812 62.890625 182.949219 62.492188 C 183.640625 62.09375 184.1875 61.550781 184.664062 60.933594 C 185.101562 60.28125 185.429688 59.554688 185.613281 58.722656 C 185.792969 57.851562 185.902344 57.015625 185.902344 56.144531 Z M 193.597656 38.777344 L 197.972656 38.777344 L 197.972656 42.875 L 193.597656 42.875 Z M 193.597656 46.285156 L 197.972656 46.285156 L 197.972656 65.972656 L 193.597656 65.972656 Z M 201.875 38.777344 L 206.253906 38.777344 L 206.253906 65.972656 L 201.875 65.972656 Z M 219.601562 66.515625 C 218.03125 66.515625 216.609375 66.261719 215.371094 65.71875 C 214.128906 65.175781 213.109375 64.488281 212.234375 63.578125 C 211.394531 62.671875 210.738281 61.550781 210.300781 60.28125 C 209.863281 59.011719 209.609375 57.597656 209.609375 56.109375 C 209.609375 54.625 209.828125 53.246094 210.300781 51.976562 C 210.738281 50.707031 211.394531 49.621094 212.234375 48.675781 C 213.074219 47.769531 214.128906 47.042969 215.371094 46.535156 C 216.609375 46.03125 218.03125 45.738281 219.601562 45.738281 C 221.167969 45.738281 222.589844 45.992188 223.832031 46.535156 C 225.070312 47.042969 226.09375 47.769531 226.96875 48.675781 C 227.804688 49.582031 228.460938 50.707031 228.898438 51.976562 C 229.335938 53.246094 229.59375 54.625 229.59375 56.109375 C 229.59375 57.632812 229.375 59.011719 228.898438 60.28125 C 228.425781 61.550781 227.804688 62.636719 226.96875 63.578125 C 226.128906 64.488281 225.070312 65.210938 223.832031 65.71875 C 222.589844 66.226562 221.207031 66.515625 219.601562 66.515625 Z M 219.601562 63.074219 C 220.546875 63.074219 221.425781 62.855469 222.117188 62.457031 C 222.847656 62.058594 223.394531 61.511719 223.867188 60.859375 C 224.339844 60.207031 224.667969 59.445312 224.886719 58.648438 C 225.105469 57.8125 225.214844 56.980469 225.214844 56.109375 C 225.214844 55.277344 225.105469 54.441406 224.886719 53.609375 C 224.667969 52.773438 224.339844 52.046875 223.867188 51.394531 C 223.394531 50.742188 222.808594 50.234375 222.117188 49.835938 C 221.386719 49.4375 220.546875 49.21875 219.601562 49.21875 C 218.652344 49.21875 217.777344 49.4375 217.085938 49.835938 C 216.355469 50.234375 215.808594 50.78125 215.332031 51.394531 C 214.859375 52.046875 214.53125 52.773438 214.3125 53.609375 C 214.09375 54.441406 213.984375 55.277344 213.984375 56.109375 C 213.984375 56.980469 214.09375 57.8125 214.3125 58.648438 C 214.53125 59.480469 214.859375 60.207031 215.332031 60.859375 C 215.808594 61.511719 216.390625 62.058594 217.085938 62.457031 C 217.8125 62.890625 218.652344 63.074219 219.601562 63.074219 Z M 230.90625 46.285156 L 234.222656 46.285156 L 234.222656 40.335938 L 238.601562 40.335938 L 238.601562 46.246094 L 242.539062 46.246094 L 242.539062 49.472656 L 238.601562 49.472656 L 238.601562 59.988281 C 238.601562 60.460938 238.636719 60.824219 238.671875 61.1875 C 238.710938 61.511719 238.820312 61.804688 238.929688 62.019531 C 239.074219 62.238281 239.292969 62.417969 239.550781 62.527344 C 239.839844 62.636719 240.207031 62.710938 240.714844 62.710938 C 241.007812 62.710938 241.335938 62.710938 241.628906 62.671875 C 241.917969 62.636719 242.246094 62.601562 242.539062 62.527344 L 242.539062 65.902344 C 242.066406 65.972656 241.589844 66.007812 241.117188 66.046875 C 240.644531 66.117188 240.207031 66.117188 239.695312 66.117188 C 238.527344 66.117188 237.617188 66.007812 236.921875 65.792969 C 236.230469 65.574219 235.683594 65.246094 235.28125 64.847656 C 234.882812 64.414062 234.625 63.90625 234.480469 63.289062 C 234.335938 62.671875 234.261719 61.910156 234.222656 61.113281 L 234.222656 49.511719 L 230.90625 49.511719 L 230.90625 46.210938 Z M 230.90625 46.285156 " fill-opacity="1" fill-rule="nonzero"/></g><g clip-path="url(#319e0275a0)"><path fill="#00b67a" d="M 76.132812 38.777344 L 56.109375 38.777344 L 49.945312 19.847656 L 43.746094 38.777344 L 23.726562 38.742188 L 39.917969 50.453125 L 33.71875 69.382812 L 49.910156 57.667969 L 66.101562 69.382812 L 59.9375 50.453125 Z M 76.132812 38.777344 " fill-opacity="1" fill-rule="nonzero"/></g><path fill="#005128" d="M 61.324219 54.730469 L 59.9375 50.453125 L 49.945312 57.667969 Z M 61.324219 54.730469 " fill-opacity="1" fill-rule="nonzero"/><g clip-path="url(#0d2b2dc065)"><path fill="#00b67a" d="M 23.671875 82.769531 L 71.042969 82.769531 L 71.042969 129.859375 L 23.671875 129.859375 Z M 74.992188 82.769531 L 122.367188 82.769531 L 122.367188 129.859375 L 74.992188 129.859375 Z M 126.3125 82.769531 L 173.6875 82.769531 L 173.6875 129.859375 L 126.3125 129.859375 Z M 177.632812 82.769531 L 225.007812 82.769531 L 225.007812 129.859375 L 177.632812 129.859375 Z M 228.957031 82.769531 L 276.328125 82.769531 L 276.328125 129.859375 L 228.957031 129.859375 Z M 228.957031 82.769531 " fill-opacity="1" fill-rule="nonzero"/></g><path fill="#ffffff" d="M 47.355469 114.503906 L 54.5625 112.691406 L 57.570312 121.910156 Z M 63.9375 102.585938 L 51.253906 102.585938 L 47.355469 90.714844 L 43.457031 102.585938 L 30.777344 102.585938 L 41.039062 109.941406 L 37.140625 121.8125 L 47.40625 114.457031 L 53.722656 109.941406 Z M 98.679688 114.503906 L 105.882812 112.691406 L 108.894531 121.910156 Z M 115.257812 102.585938 L 102.578125 102.585938 L 98.679688 90.714844 L 94.78125 102.585938 L 82.097656 102.585938 L 92.363281 109.941406 L 88.464844 121.8125 L 98.726562 114.457031 L 105.042969 109.941406 Z M 150 114.503906 L 157.203125 112.691406 L 160.214844 121.910156 Z M 166.582031 102.585938 L 153.898438 102.585938 L 150 90.714844 L 146.101562 102.585938 L 133.417969 102.585938 L 143.683594 109.941406 L 139.785156 121.8125 L 150.050781 114.457031 L 156.367188 109.941406 Z M 201.320312 114.503906 L 208.527344 112.691406 L 211.535156 121.910156 Z M 217.902344 102.585938 L 205.21875 102.585938 L 201.320312 90.714844 L 197.421875 102.585938 L 184.742188 102.585938 L 195.003906 109.941406 L 191.105469 121.8125 L 201.371094 114.457031 L 207.6875 109.941406 Z M 252.644531 114.503906 L 259.847656 112.691406 L 262.859375 121.910156 Z M 269.222656 102.585938 L 256.542969 102.585938 L 252.644531 90.714844 L 248.746094 102.585938 L 236.0625 102.585938 L 246.328125 109.941406 L 242.429688 121.8125 L 252.691406 114.457031 L 259.007812 109.941406 Z M 269.222656 102.585938 " fill-opacity="1" fill-rule="nonzero"/></svg>